<svg width="110" height="27" viewBox="0 0 110 27" fill="none" xmlns="http://www.w3.org/2000/svg">
<path fill-rule="evenodd" clip-rule="evenodd" d="M84.0904 26.0963C91.2967 26.0963 97.1386 20.2545 97.1386 13.0482C97.1386 5.84187 91.2967 0 84.0904 0C76.8841 0 71.0422 5.84187 71.0422 13.0482C71.0422 20.2545 76.8841 26.0963 84.0904 26.0963ZM82.3937 10.7455H80.3213V11.3949C79.8332 10.833 79.147 10.5521 78.2628 10.5521C77.351 10.5521 76.5727 10.9067 75.9279 11.6159C75.2832 12.316 74.9609 13.1771 74.9609 14.1994C74.9609 15.2218 75.2832 16.0876 75.9279 16.7969C76.5727 17.4968 77.351 17.8469 78.2628 17.8469C79.147 17.8469 79.8332 17.5659 80.3213 17.004V17.6534H82.3937V10.7455ZM78.6773 15.885C78.1891 15.885 77.7931 15.7331 77.4891 15.4291C77.1852 15.1251 77.0332 14.7153 77.0332 14.1994C77.0332 13.6837 77.1852 13.2739 77.4891 12.9699C77.7931 12.6659 78.1891 12.5139 78.6773 12.5139C79.1654 12.5139 79.5614 12.6659 79.8654 12.9699C80.1694 13.2739 80.3213 13.6837 80.3213 14.1994C80.3213 14.7153 80.1694 15.1251 79.8654 15.4291C79.5614 15.7331 79.1654 15.885 78.6773 15.885ZM83.9141 8.24055V17.6534H85.9864V10.0523L84.7306 10.4484L85.9864 9.19059V7.56793L83.9141 8.24055ZM90.1279 12.735H91.5509V10.7455H90.1279V8.81138L88.0556 9.43306V10.7455H86.9503V12.735H88.0556V15.1804C88.0556 16.1844 88.3088 16.8843 88.8154 17.2804C89.322 17.6672 90.2339 17.7915 91.5509 17.6534V15.7745C91.0444 15.8021 90.6806 15.7791 90.4595 15.7054C90.2384 15.6317 90.1279 15.4567 90.1279 15.1804V12.735Z" fill="#0071B8"/>
<path fill-rule="evenodd" clip-rule="evenodd" d="M102.848 9.58129V8.0803L104.579 7.5564V9.08742L102.848 9.58129ZM102.85 10.7017V17.6305H104.581L104.626 10.173L102.85 10.7017ZM108.485 12.5795H110V10.9138H108.485V9.0331L106.754 9.55701V10.9138H105.588V12.5795H106.754V15.3737C106.754 16.2962 106.996 16.9364 107.479 17.2947C107.971 17.6529 108.811 17.7649 110 17.6305V16.0588C109.67 16.0767 109.392 16.0812 109.169 16.0722C108.945 16.0544 108.775 15.9916 108.659 15.8842C108.543 15.7767 108.485 15.6065 108.485 15.3737V12.5795Z" fill="#4E556A"/>
<path d="M100.469 14.9515C100.246 15.1754 99.9777 15.2874 99.6647 15.2874C99.3518 15.2874 99.0835 15.1754 98.86 14.9515C98.6364 14.7276 98.5247 14.4589 98.5247 14.1455C98.5247 13.8321 98.6364 13.5634 98.86 13.3395C99.0835 13.1156 99.3518 13.0037 99.6647 13.0037C99.9777 13.0037 100.246 13.1156 100.469 13.3395C100.693 13.5634 100.805 13.8321 100.805 14.1455C100.805 14.4589 100.693 14.7276 100.469 14.9515Z" fill="#4E556A"/>
<path d="M4.78251 16.8236C3.39856 16.8236 2.25549 16.3804 1.35329 15.4941C0.451097 14.6078 0 13.5146 0 12.2147C0 10.9063 0.451097 9.81311 1.35329 8.93522C2.25549 8.04888 3.39856 7.60571 4.78251 7.60571C5.61463 7.60571 6.38106 7.79564 7.08179 8.1755C7.79128 8.54692 8.34311 9.05339 8.73727 9.69494L7.17376 10.5686C6.94603 10.1719 6.62193 9.86376 6.20149 9.64429C5.78105 9.41637 5.30806 9.30242 4.78251 9.30242C3.88907 9.30242 3.16644 9.57253 2.61461 10.1128C2.07155 10.653 1.80001 11.3537 1.80001 12.2147C1.80001 13.0672 2.07155 13.7636 2.61461 14.3039C3.16644 14.8441 3.88907 15.1143 4.78251 15.1143C5.30806 15.1143 5.78105 15.0045 6.20149 14.785C6.6307 14.5571 6.95478 14.249 7.17376 13.8607L8.73727 14.7344C8.34311 15.3759 7.79566 15.8866 7.09493 16.2665C6.3942 16.6379 5.62339 16.8236 4.78251 16.8236ZM11.5698 11.4043C11.7275 10.9991 11.9859 10.6952 12.345 10.4926C12.7129 10.29 13.1202 10.1888 13.5669 10.1888V12.0121C13.0501 11.953 12.5859 12.0543 12.1742 12.316C11.7713 12.5776 11.5698 13.0124 11.5698 13.6201V16.6463H9.87489V10.3154H11.5698V11.4043ZM15.7465 14.1519C15.9742 14.9454 16.5917 15.3422 17.5991 15.3422C18.2472 15.3422 18.7378 15.1311 19.0706 14.7091L20.437 15.4688C19.7889 16.372 18.8341 16.8236 17.5728 16.8236C16.4866 16.8236 15.6151 16.5071 14.9582 15.874C14.3012 15.2409 13.9728 14.4432 13.9728 13.4809C13.9728 12.527 14.2969 11.7335 14.945 11.1004C15.5932 10.4589 16.4254 10.1381 17.4414 10.1381C18.4049 10.1381 19.1976 10.4589 19.8195 11.1004C20.4502 11.742 20.7655 12.5354 20.7655 13.4809C20.7655 13.6919 20.7436 13.9156 20.6998 14.1519H15.7465ZM15.7202 12.8857H19.0706C18.9743 12.4552 18.7728 12.1345 18.4662 11.9234C18.1684 11.7124 17.8268 11.6069 17.4414 11.6069C16.9859 11.6069 16.6093 11.7208 16.3115 11.9488C16.0136 12.1682 15.8165 12.4806 15.7202 12.8857ZM26.8901 10.3154H28.585V16.6463H26.8901V15.8993C26.3821 16.5155 25.6682 16.8236 24.7485 16.8236C23.8726 16.8236 23.1193 16.5028 22.4886 15.8613C21.8667 15.2113 21.5557 14.4178 21.5557 13.4809C21.5557 12.5439 21.8667 11.7546 22.4886 11.1131C23.1193 10.4631 23.8726 10.1381 24.7485 10.1381C25.6682 10.1381 26.3821 10.4462 26.8901 11.0624V10.3154ZM23.7631 14.7724C24.1047 15.1016 24.5382 15.2662 25.0638 15.2662C25.5893 15.2662 26.0229 15.1016 26.3645 14.7724C26.7149 14.4347 26.8901 14.0042 26.8901 13.4809C26.8901 12.9575 26.7149 12.5312 26.3645 12.202C26.0229 11.8643 25.5893 11.6955 25.0638 11.6955C24.5382 11.6955 24.1047 11.8643 23.7631 12.202C23.4214 12.5312 23.2506 12.9575 23.2506 13.4809C23.2506 14.0042 23.4214 14.4347 23.7631 14.7724ZM33.8796 11.8855H32.3949V14.5191C32.3949 14.7386 32.4519 14.899 32.5657 15.0003C32.6796 15.1016 32.8461 15.1607 33.065 15.1776C33.284 15.186 33.5556 15.1818 33.8796 15.1649V16.6463C32.7147 16.773 31.8913 16.6675 31.4095 16.3298C30.9365 15.9921 30.7 15.3886 30.7 14.5191V11.8855H29.5569V10.3154H30.7V9.03651L32.3949 8.5427V10.3154H33.8796V11.8855ZM36.3015 14.1519C36.5292 14.9454 37.1467 15.3422 38.154 15.3422C38.8022 15.3422 39.2928 15.1311 39.6256 14.7091L40.992 15.4688C40.3439 16.372 39.3891 16.8236 38.1278 16.8236C37.0416 16.8236 36.1701 16.5071 35.5132 15.874C34.8562 15.2409 34.5277 14.4432 34.5277 13.4809C34.5277 12.527 34.8519 11.7335 35.5 11.1004C36.1482 10.4589 36.9803 10.1381 37.9964 10.1381C38.9599 10.1381 39.7526 10.4589 40.3745 11.1004C41.0052 11.742 41.3205 12.5354 41.3205 13.4809C41.3205 13.6919 41.2985 13.9156 41.2548 14.1519H36.3015ZM36.2752 12.8857H39.6256C39.5293 12.4552 39.3277 12.1345 39.0212 11.9234C38.7234 11.7124 38.3817 11.6069 37.9964 11.6069C37.5409 11.6069 37.1643 11.7208 36.8664 11.9488C36.5686 12.1682 36.3715 12.4806 36.2752 12.8857ZM47.4319 7.78298H49.1268V16.6463H47.4319V15.8993C46.9327 16.5155 46.2232 16.8236 45.3034 16.8236C44.4188 16.8236 43.6611 16.5028 43.0304 15.8613C42.4086 15.2113 42.0976 14.4178 42.0976 13.4809C42.0976 12.5439 42.4086 11.7546 43.0304 11.1131C43.6611 10.4631 44.4188 10.1381 45.3034 10.1381C46.2232 10.1381 46.9327 10.4462 47.4319 11.0624V7.78298ZM44.3049 14.7724C44.6553 15.1016 45.0932 15.2662 45.6188 15.2662C46.1443 15.2662 46.5779 15.1016 46.9195 14.7724C47.2611 14.4347 47.4319 14.0042 47.4319 13.4809C47.4319 12.9575 47.2611 12.5312 46.9195 12.202C46.5779 11.8643 46.1443 11.6955 45.6188 11.6955C45.0932 11.6955 44.6553 11.8643 44.3049 12.202C43.9633 12.5312 43.7925 12.9575 43.7925 13.4809C43.7925 14.0042 43.9633 14.4347 44.3049 14.7724ZM57.785 10.1381C58.6696 10.1381 59.423 10.4631 60.0448 11.1131C60.6755 11.7546 60.9908 12.5439 60.9908 13.4809C60.9908 14.4178 60.6755 15.2113 60.0448 15.8613C59.423 16.5028 58.6696 16.8236 57.785 16.8236C56.8652 16.8236 56.1558 16.5155 55.6565 15.8993V16.6463H53.9616V7.78298H55.6565V11.0624C56.1558 10.4462 56.8652 10.1381 57.785 10.1381ZM56.1689 14.7724C56.5105 15.1016 56.9441 15.2662 57.4696 15.2662C57.9952 15.2662 58.4288 15.1016 58.7704 14.7724C59.1208 14.4347 59.2959 14.0042 59.2959 13.4809C59.2959 12.9575 59.1208 12.5312 58.7704 12.202C58.4288 11.8643 57.9952 11.6955 57.4696 11.6955C56.9441 11.6955 56.5105 11.8643 56.1689 12.202C55.8273 12.5312 55.6565 12.9575 55.6565 13.4809C55.6565 14.0042 55.8273 14.4347 56.1689 14.7724ZM66.2128 10.3154H68.0259L65.6347 16.6463C65.2931 17.558 64.8375 18.2164 64.2682 18.6216C63.7076 19.0353 63.0069 19.2209 62.166 19.1787V17.6593C62.6215 17.6678 62.9806 17.5749 63.2434 17.3807C63.515 17.1866 63.7295 16.8743 63.8872 16.4438L61.1938 10.3154H63.0463L64.7544 14.5698L66.2128 10.3154Z" fill="#4E556A"/>
</svg>
