<svg width="458" height="35" viewBox="0 0 458 35" fill="none" xmlns="http://www.w3.org/2000/svg">
<g clip-path="url(#clip0_5830:6970)">
<path d="M35.2068 11.6118L23.4143 -0.181274L23.4203 11.6108L35.2068 11.6118Z" fill="#1A80C0"/>
<path d="M35.2051 35.1997L23.4096 23.4091L23.4144 35.2036L35.2051 35.1997Z" fill="#26C9F4"/>
<path d="M-0.178192 23.4105L11.6143 35.2036L11.6254 23.4061L-0.178192 23.4105Z" fill="#1A80C0"/>
<path d="M23.4083 23.4083L35.2049 35.2016L35.2065 23.4083L23.4083 23.4083Z" fill="#26C9F4"/>
<path d="M35.2048 11.6147L23.4124 23.4078L35.2062 23.408L35.2048 11.6147Z" fill="#00C0F2"/>
<path d="M23.4089 23.4093L11.6143 35.2046L23.4146 35.1981L23.4089 23.4093Z" fill="#00C0F2"/>
<path d="M23.4109 23.4099L35.2068 11.6134L23.4127 11.6136L23.4109 23.4099Z" fill="#00ADE5"/>
<path d="M11.6143 35.2065L23.4124 23.4078L11.6162 23.4101L11.6143 35.2065Z" fill="#00ADE5"/>
<path d="M-0.19675 23.3882L11.5957 35.1813L11.5953 23.3865L-0.19675 23.3882Z" fill="#F22A2E"/>
<path d="M35.1897 11.5901L23.3972 -0.203003L23.3861 11.5945L35.1897 11.5901Z" fill="#F22A2E"/>
<path d="M-0.19748 -0.199343L11.595 11.5938L11.5885 -0.207262L-0.19748 -0.199343Z" fill="#FF494B"/>
<path d="M-0.206388 23.3958L11.595 11.5938L-0.196775 11.5932L-0.206388 23.3958Z" fill="#FF241E"/>
<path d="M11.6006 11.5997L23.3931 -0.193359L11.5927 -0.186881L11.6006 11.5997Z" fill="#FF3030"/>
<path d="M11.5887 11.5862L-0.19751 -0.200684L-0.19727 11.5941L11.5887 11.5862Z" fill="#FF494B"/>
<path d="M11.5999 11.5923L-0.201416 23.3943L11.599 23.3878L11.5999 11.5923Z" fill="#F92A2D"/>
<path d="M23.3874 -0.195195L11.595 11.5979L23.3953 11.5914L23.3874 -0.195195Z" fill="#F92A2D"/>
</g>
<path d="M62.95 11.0592V7.82753H49.6816V28.4189H62.95V25.1872H53.1205V19.7248H61.2306V16.4931H53.1205V11.0592H62.95ZM79.3539 12.9754H75.3992L71.9603 17.78L68.4928 12.9754H64.538L69.9542 20.6113L64.4233 28.4189H68.3781L71.9603 23.414L75.5425 28.4189H79.4972L73.9376 20.6113L79.3539 12.9754ZM94.0795 15.0059C92.7613 13.3758 90.7266 12.5464 88.6059 12.5464C86.8865 12.5464 85.2816 13.147 84.0494 14.1479V12.9754H80.983V35H84.4506V27.5609C85.6255 28.4189 87.1158 28.8478 88.7205 28.8478C90.7839 28.8478 92.7899 27.9613 94.0795 26.3884C95.3691 24.7582 95.8563 22.7849 95.8563 20.6971C95.8563 18.5808 95.2831 16.5503 94.0795 15.0059ZM91.3284 24.272C90.6119 25.3302 89.4083 25.7591 88.2047 25.7591C86.9725 25.7591 85.9122 25.3588 85.167 24.5008C84.3933 23.6142 84.0494 22.1556 84.0494 20.6971C84.0494 19.2385 84.3933 17.8086 85.167 16.8648C85.8548 16.0355 86.9152 15.6351 88.0901 15.6351C89.437 15.6351 90.5547 16.0641 91.2711 17.1222C91.9016 18.0088 92.1881 19.2958 92.1881 20.6971C92.1881 22.0699 91.9589 23.3854 91.3284 24.272ZM104.759 28.8478C107.052 28.8478 109.172 27.99 110.605 26.2739C111.923 24.6438 112.468 22.842 112.468 20.6971C112.468 18.638 111.952 16.7219 110.605 15.0917C109.201 13.4044 107.023 12.5464 104.759 12.5464C102.495 12.5464 100.289 13.433 98.913 15.0917C97.652 16.6075 97.0503 18.5521 97.0503 20.6971C97.0503 22.7849 97.5947 24.6724 98.913 26.2739C100.317 27.9613 102.466 28.8478 104.759 28.8478ZM107.854 24.1863C107.166 25.13 105.991 25.6161 104.759 25.6161C103.498 25.6161 102.352 25.13 101.664 24.1863C100.919 23.2424 100.718 21.9555 100.718 20.6971C100.718 19.4101 100.919 18.1232 101.664 17.1794C102.352 16.2357 103.498 15.7781 104.759 15.7781C105.991 15.7781 107.166 16.2357 107.854 17.1794C108.571 18.1232 108.828 19.4101 108.828 20.6971C108.828 21.9555 108.571 23.2424 107.854 24.1863ZM122.08 12.575C121.048 12.6036 120.017 12.8896 119.128 13.4902C118.469 13.9191 117.953 14.4911 117.581 15.1203V12.9754H114.514V28.4189H117.982V20.4112C117.982 18.9812 118.24 17.78 119.128 16.8648C119.701 16.2643 120.59 15.8639 121.736 15.7781C122.768 15.7209 122.692 15.7781 122.692 15.7781V12.5989C122.692 12.5989 122.638 12.575 122.08 12.575ZM135.233 15.6637V12.9754H130.676V8.6855H127.238V12.9754H124.429V15.6637H127.238V22.0985C127.238 23.7286 127.295 25.13 127.925 26.3311C128.527 27.4751 129.587 28.1614 130.992 28.5047C132.109 28.7907 134.029 28.7335 135.233 28.4189V25.4445C134.402 25.559 133.456 25.5875 132.682 25.5304C132.052 25.4732 131.393 25.1014 131.049 24.5294C130.705 23.9574 130.676 23.0995 130.676 21.8697V15.6637H135.233ZM138.034 24.9011V28.4189H141.558V24.9011H138.034ZM148.763 7.82753V25.1872H157.877V28.4189H145.324V7.82753H148.763ZM159.51 7.51294V10.6874H162.949V7.51294H159.51ZM159.51 12.9754V28.4189H162.949V12.9754H159.51ZM178.508 14.1193C177.075 12.7466 175.27 12.4606 173.522 12.575C172.118 12.6322 170.57 13.147 169.567 14.3195C169.453 14.4625 169.338 14.6055 169.223 14.7199V12.9754H166.185V28.4189H169.653V21.6981V21.6695C169.653 20.5542 169.653 19.3816 169.825 18.638C169.996 17.7228 170.427 16.9792 171.028 16.4931C171.602 16.0355 172.289 15.8067 173.063 15.7781C174.153 15.7495 175.04 16.0641 175.643 16.6647C176.646 17.5798 176.875 19.2958 176.875 21.0976V28.4189H180.371V20.9545C180.371 18.4664 180.314 15.7495 178.508 14.1193ZM186.528 21.8983H188.161L192.804 28.4189H196.758L191.142 20.5255L196.272 12.9754H192.403L188.133 19.21H186.528V7.82753H183.031L183.003 28.4189H186.528V21.8983Z" fill="#253858"/>
<rect x="212.215" y="9.56982" width="1.02851" height="19.5417" fill="#BDBFC7"/>
<path d="M234.139 14.0697C234.062 14.3493 233.937 14.6097 233.773 14.8411C233.368 15.3714 232.702 15.651 232.027 15.6414C231.343 15.6414 230.677 15.3714 230.292 14.8411C229.877 14.3107 229.761 13.6069 229.752 12.9126C229.761 12.2184 229.877 11.5048 230.292 10.9842C230.677 10.4538 231.343 10.1838 232.027 10.1838C232.702 10.1838 233.368 10.4538 233.773 10.9842C233.956 11.2349 234.081 11.5241 234.168 11.8423L235.132 11.6784C235.007 11.2445 234.814 10.8009 234.515 10.4153C233.927 9.67281 233.011 9.29675 232.027 9.29675C231.044 9.29675 230.128 9.66316 229.54 10.4153C228.98 11.1191 228.768 11.9966 228.759 12.9126C228.749 13.8093 228.971 14.6964 229.54 15.41C230.128 16.1428 231.025 16.5285 232.027 16.5285C232.992 16.5285 233.908 16.1717 234.515 15.41C234.775 15.0821 234.959 14.7157 235.065 14.33L234.139 14.0697ZM240.75 9.44139L237.231 14.6675V9.44139H236.286V16.3838H237.125L240.625 11.1577V16.3838H241.579V9.44139H240.75ZM248.114 14.0697C248.037 14.3493 247.912 14.6097 247.748 14.8411C247.343 15.3714 246.678 15.651 246.003 15.6414C245.318 15.6414 244.653 15.3714 244.267 14.8411C243.852 14.3107 243.737 13.6069 243.727 12.9126C243.737 12.2184 243.852 11.5048 244.267 10.9842C244.653 10.4538 245.318 10.1838 246.003 10.1838C246.678 10.1838 247.343 10.4538 247.748 10.9842C247.931 11.2349 248.056 11.5241 248.143 11.8423L249.107 11.6784C248.982 11.2445 248.789 10.8009 248.49 10.4153C247.902 9.67281 246.986 9.29675 246.003 9.29675C245.019 9.29675 244.103 9.66316 243.515 10.4153C242.956 11.1191 242.744 11.9966 242.734 12.9126C242.724 13.8093 242.946 14.6964 243.515 15.41C244.103 16.1428 245 16.5285 246.003 16.5285C246.967 16.5285 247.883 16.1717 248.49 15.41C248.751 15.0821 248.934 14.7157 249.04 14.33L248.114 14.0697ZM255.198 9.44139H249.586V10.3767H251.919V16.3838H252.855V10.3767H255.198V9.44139ZM260.432 10.3767V9.44139H256.064V16.3838H260.432V15.4485H257V13.3754H259.854V12.4498H257V10.3767H260.432ZM268.739 9.44139H267.794L265.267 14.8218L262.722 9.44139H261.786V16.3838H262.731V11.4856L265.036 16.3838H265.489L267.794 11.4759V16.3838H268.739V9.44139ZM274.497 16.3838H275.462L273.176 9.44139H271.846L269.561 16.3838H270.525L270.939 15.1207H274.073L274.497 16.3838ZM271.229 14.2432L272.501 10.4056L273.784 14.2432H271.229ZM284.064 9.44139H278.365V16.3838H279.3V10.3767H283.128V16.3838H284.064V9.44139ZM288.479 16.5285C289.463 16.5285 290.369 16.1621 290.967 15.41C291.536 14.6964 291.738 13.8383 291.738 12.9126C291.729 12.0159 291.546 11.1384 290.967 10.4153C290.379 9.67281 289.463 9.3064 288.479 9.29675C287.505 9.29675 286.58 9.66316 286.001 10.4153C285.442 11.1095 285.22 12.0159 285.22 12.9126C285.22 13.8093 285.442 14.7061 286.001 15.41C286.57 16.1621 287.496 16.5285 288.479 16.5285ZM288.479 15.6414C287.804 15.651 287.129 15.3714 286.744 14.8411C286.329 14.3107 286.204 13.6069 286.204 12.9126C286.213 12.228 286.329 11.5048 286.744 10.9842C287.129 10.4538 287.804 10.1838 288.479 10.1935C289.164 10.1838 289.829 10.4538 290.215 10.9842C290.62 11.5048 290.755 12.228 290.755 12.9126C290.745 13.6069 290.62 14.3107 290.215 14.8411C289.829 15.3714 289.164 15.6414 288.479 15.6414ZM298.323 15.4967V9.44139H293.888L293.415 13.549C293.261 14.8314 292.866 15.4967 292.229 15.4967V17.2131H293.107V16.3838H297.957V17.2131H298.844V15.4967H298.323ZM297.436 15.4967H293.657C294.023 15.111 294.196 14.4843 294.293 13.6551L294.688 10.3285H297.436V15.4967ZM305.718 15.4967V9.44139H301.282L300.81 13.549C300.656 14.8314 300.26 15.4967 299.624 15.4967V17.2131H300.501V16.3838H305.351V17.2131H306.238V15.4967H305.718ZM304.831 15.4967H301.051C301.417 15.111 301.591 14.4843 301.687 13.6551L302.083 10.3285H304.831V15.4967ZM311.859 10.3767V9.44139H307.491V16.3838H311.859V15.4485H308.426V13.3754H311.28V12.4498H308.426V10.3767H311.859ZM318.429 11.6495C318.429 11.1288 318.227 10.6178 317.889 10.2321C317.648 9.92351 317.301 9.69209 316.925 9.56674C316.694 9.47996 316.453 9.44139 316.212 9.44139H313.213V16.3838H314.148V13.8479H316.212C316.887 13.8479 317.542 13.5297 317.938 13.0187C318.246 12.6426 318.439 12.1412 318.429 11.6495ZM317.186 12.4691C316.944 12.7776 316.549 12.9608 316.202 12.9608H314.148V10.3285H316.202C316.53 10.3285 316.887 10.502 317.118 10.7431C317.34 10.9842 317.465 11.312 317.475 11.6495C317.484 11.9484 317.369 12.2377 317.186 12.4691ZM318.754 16.3838H319.882L321.927 13.1537H322.92V16.3838H323.865V13.1537H324.848L326.892 16.3838H328.02L325.668 12.768L327.828 9.44139H326.709L324.848 12.3919H323.865V9.44139H322.92V12.3919H321.927L320.066 9.44139H318.947L321.107 12.768L318.754 16.3838ZM331.253 13.1537L333.297 16.3838H334.426L332.072 12.768L334.232 9.44139H333.114L331.253 12.3919H329.787V9.44139H328.842V16.3838H329.787V13.1537H331.253ZM339.662 9.44139L336.142 14.6675V9.44139H335.197V16.3838H336.036L339.536 11.1577V16.3838H340.491V9.44139H339.662ZM349.818 9.44139H344.119V16.3838H345.054V10.3767H348.882V16.3838H349.818V9.44139ZM356.577 11.6495C356.577 11.1288 356.374 10.6178 356.037 10.2321C355.796 9.92351 355.448 9.69209 355.073 9.56674C354.841 9.47996 354.6 9.44139 354.359 9.44139H351.36V16.3838H352.296V13.8479H354.359C355.034 13.8479 355.69 13.5297 356.085 13.0187C356.394 12.6426 356.586 12.1412 356.577 11.6495ZM355.333 12.4691C355.091 12.7776 354.696 12.9608 354.349 12.9608H352.296V10.3285H354.349C354.677 10.3285 355.034 10.502 355.265 10.7431C355.487 10.9842 355.613 11.312 355.622 11.6495C355.631 11.9484 355.516 12.2377 355.333 12.4691ZM362.089 9.44139L358.57 14.6675V9.44139H357.625V16.3838H358.464L361.964 11.1577V16.3838H362.918V9.44139H362.089ZM368.952 9.44139V12.9512H365.394V9.44139H364.458V16.3838H365.394V13.8768H368.952V16.3838H369.888V9.44139H368.952ZM375.979 9.44139H372.991C372.74 9.44139 372.498 9.47996 372.266 9.56674C371.891 9.69209 371.554 9.92351 371.312 10.2321C370.965 10.6178 370.772 11.1288 370.763 11.6495C370.763 12.1412 370.955 12.6426 371.264 13.0187C371.477 13.2983 371.766 13.5104 372.094 13.6551L370.763 16.3838H371.833L373.057 13.8479H375.054V16.3838H375.979V9.44139ZM375.054 12.9608H372.991C372.643 12.9608 372.257 12.7776 372.006 12.4691C371.823 12.2377 371.708 11.9484 371.717 11.6495C371.727 11.312 371.852 10.9842 372.083 10.7431C372.306 10.502 372.662 10.3285 372.991 10.3285H375.054V12.9608ZM382.466 9.44139H376.855V10.3767H379.188V16.3838H380.123V10.3767H382.466V9.44139ZM387.798 9.44139L384.278 14.6675V9.44139H383.333V16.3838H384.173L387.673 11.1577V16.3838H388.627V9.44139H387.798ZM394.719 9.44139H391.729C391.479 9.44139 391.237 9.47996 391.006 9.56674C390.631 9.69209 390.292 9.92351 390.051 10.2321C389.705 10.6178 389.511 11.1288 389.502 11.6495C389.502 12.1412 389.695 12.6426 390.003 13.0187C390.215 13.2983 390.505 13.5104 390.832 13.6551L389.502 16.3838H390.572L391.797 13.8479H393.793V16.3838H394.719V9.44139ZM393.793 12.9608H391.729C391.382 12.9608 390.997 12.7776 390.746 12.4691C390.563 12.2377 390.446 11.9484 390.457 11.6495C390.466 11.312 390.591 10.9842 390.823 10.7431C391.045 10.502 391.402 10.3285 391.729 10.3285H393.793V12.9608ZM403.573 11.6495C403.573 11.1288 403.371 10.6178 403.033 10.2321C402.793 9.92351 402.445 9.69209 402.07 9.56674C401.838 9.47996 401.596 9.44139 401.356 9.44139H398.357V16.3838H399.293V13.8479H401.356C402.031 13.8479 402.687 13.5297 403.082 13.0187C403.39 12.6426 403.584 12.1412 403.573 11.6495ZM402.33 12.4691C402.089 12.7776 401.693 12.9608 401.347 12.9608H399.293V10.3285H401.347C401.674 10.3285 402.031 10.502 402.262 10.7431C402.484 10.9842 402.61 11.312 402.619 11.6495C402.629 11.9484 402.513 12.2377 402.33 12.4691ZM408.989 10.3767V9.44139H404.621V16.3838H408.989V15.4485H405.557V13.3754H408.411V12.4498H405.557V10.3767H408.989ZM416.804 9.44139V15.4485H414.509V9.44139H413.573V15.4485H411.279V9.44139H410.344V16.3838H417.739V9.44139H416.804ZM423.652 10.3767V9.44139H419.284V16.3838H423.652V15.4485H420.22V13.3754H423.074V12.4498H420.22V10.3767H423.652ZM429.499 9.44139V12.9512H425.941V9.44139H425.006V16.3838H425.941V13.8768H429.499V16.3838H430.435V9.44139H429.499ZM436.44 9.44139L432.921 14.6675V9.44139H431.976V16.3838H432.815L436.315 11.1577V16.3838H437.269V9.44139H436.44ZM442.204 7.51294C442.204 7.84078 441.943 8.1204 441.605 8.1204C441.268 8.1204 440.999 7.84078 440.999 7.51294H440.246C440.246 8.25539 440.854 8.86286 441.605 8.86286C442.348 8.86286 442.956 8.25539 442.956 7.51294H442.204ZM443.274 9.44139L439.754 14.6675V9.44139H438.81V16.3838H439.648L443.148 11.1577V16.3838H444.103V9.44139H443.274ZM234.766 27.8388V21.7835H230.33L229.858 25.8911C229.704 27.1735 229.308 27.8388 228.672 27.8388V29.5552H229.549V28.7259H234.399V29.5552H235.286V27.8388H234.766ZM233.879 27.8388H230.099C230.465 27.4532 230.639 26.8264 230.735 25.9972L231.131 22.6706H233.879V27.8388ZM242.006 21.7835H237.619L237.069 26.3925C236.963 27.3085 236.741 27.8677 235.96 27.8871V28.7259C237.31 28.832 237.773 27.916 237.927 26.5757L238.39 22.6706H241.071V28.7259H242.006V21.7835ZM248.096 21.7835H245.106C244.856 21.7835 244.615 21.8221 244.383 21.9089C244.007 22.0341 243.67 22.2656 243.429 22.5741C243.082 22.9598 242.889 23.4709 242.879 23.9916C242.879 24.4833 243.072 24.9847 243.381 25.3608C243.593 25.6404 243.882 25.8525 244.21 25.9972L242.879 28.7259H243.949L245.174 26.19H247.17V28.7259H248.096V21.7835ZM247.17 25.303H245.106C244.759 25.303 244.374 25.1197 244.123 24.8111C243.94 24.5797 243.824 24.2905 243.834 23.9916C243.843 23.654 243.969 23.3263 244.2 23.0852C244.422 22.8441 244.779 22.6706 245.106 22.6706H247.17V25.303ZM258.686 21.7835H257.742L255.215 27.1638L252.67 21.7835H251.734V28.7259H252.679V23.8277L254.984 28.7259H255.437L257.742 23.818V28.7259H258.686V21.7835ZM264.6 22.7188V21.7835H260.232V28.7259H264.6V27.7906H261.167V25.7175H264.021V24.7919H261.167V22.7188H264.6ZM265.23 28.7259H266.359L268.403 25.4958H269.396V28.7259H270.341V25.4958H271.324L273.369 28.7259H274.497L272.144 25.1101L274.304 21.7835H273.185L271.324 24.734H270.341V21.7835H269.396V24.734H268.403L266.542 21.7835H265.423L267.583 25.1101L265.23 28.7259ZM280.94 27.8388V21.7835H276.505L276.032 25.8911C275.878 27.1735 275.483 27.8388 274.846 27.8388V29.5552H275.724V28.7259H280.574V29.5552H281.461V27.8388H280.94ZM280.053 27.8388H276.273C276.64 27.4532 276.813 26.8264 276.91 25.9972L277.305 22.6706H280.053V27.8388ZM287.004 21.7835L285.047 26.0743L283.089 21.7835H282.135L284.593 27.0578C284.439 27.3857 284.237 27.7617 283.967 27.916C283.851 27.9835 283.706 28.0028 283.552 28.0028C283.417 28.0028 283.195 27.9449 283.099 27.9063L282.79 28.7259C283.031 28.8127 283.272 28.8705 283.552 28.8705C283.764 28.8705 284.111 28.8127 284.343 28.697C284.757 28.4656 285.018 28.0703 285.278 27.5495L287.968 21.7835H287.004ZM293.326 21.7835V25.2933H289.768V21.7835H288.833V28.7259H289.768V26.2189H293.326V28.7259H294.262V21.7835H293.326ZM300.016 28.7259H300.98L298.695 21.7835H297.365L295.079 28.7259H296.044L296.458 27.4628H299.592L300.016 28.7259ZM296.748 26.5853L298.02 22.7477L299.303 26.5853H296.748ZM307.012 23.9916C307.012 23.4709 306.81 22.9598 306.472 22.5741C306.231 22.2656 305.884 22.0341 305.508 21.9089C305.277 21.8221 305.036 21.7835 304.795 21.7835H301.796V28.7259H302.731V26.19H304.795C305.47 26.19 306.125 25.8718 306.521 25.3608C306.829 24.9847 307.022 24.4833 307.012 23.9916ZM305.768 24.8111C305.527 25.1197 305.132 25.303 304.785 25.303H302.731V22.6706H304.785C305.113 22.6706 305.47 22.8441 305.701 23.0852C305.923 23.3263 306.048 23.654 306.058 23.9916C306.067 24.2905 305.952 24.5797 305.768 24.8111ZM310.934 28.8705C311.917 28.8705 312.824 28.5042 313.421 27.752C313.99 27.0386 314.193 26.1804 314.193 25.2547C314.183 24.358 314 23.4805 313.421 22.7574C312.833 22.0149 311.917 21.6485 310.934 21.6389C309.96 21.6389 309.034 22.0052 308.456 22.7574C307.896 23.4516 307.675 24.358 307.675 25.2547C307.675 26.1515 307.896 27.0481 308.456 27.752C309.025 28.5042 309.95 28.8705 310.934 28.8705ZM310.934 27.9835C310.259 27.9931 309.584 27.7135 309.198 27.1832C308.783 26.6529 308.658 25.949 308.658 25.2547C308.668 24.5701 308.783 23.8469 309.198 23.3263C309.584 22.796 310.259 22.526 310.934 22.5355C311.618 22.526 312.284 22.796 312.669 23.3263C313.074 23.8469 313.209 24.5701 313.209 25.2547C313.2 25.949 313.074 26.6529 312.669 27.1832C312.284 27.7135 311.618 27.9835 310.934 27.9835ZM320.778 27.8388V21.7835H316.342L315.87 25.8911C315.716 27.1735 315.32 27.8388 314.684 27.8388V29.5552H315.561V28.7259H320.411V29.5552H321.299V27.8388H320.778ZM319.891 27.8388H316.111C316.477 27.4532 316.651 26.8264 316.747 25.9972L317.143 22.6706H319.891V27.8388ZM327.044 21.7835V25.2933H323.486V21.7835H322.551V28.7259H323.486V26.2189H327.044V28.7259H327.979V21.7835H327.044ZM332.394 28.8705C333.378 28.8705 334.284 28.5042 334.881 27.752C335.45 27.0386 335.653 26.1804 335.653 25.2547C335.643 24.358 335.46 23.4805 334.881 22.7574C334.293 22.0149 333.378 21.6485 332.394 21.6389C331.42 21.6389 330.494 22.0052 329.916 22.7574C329.356 23.4516 329.135 24.358 329.135 25.2547C329.135 26.1515 329.356 27.0481 329.916 27.752C330.485 28.5042 331.41 28.8705 332.394 28.8705ZM332.394 27.9835C331.719 27.9931 331.044 27.7135 330.658 27.1832C330.244 26.6529 330.118 25.949 330.118 25.2547C330.128 24.5701 330.244 23.8469 330.658 23.3263C331.044 22.796 331.719 22.526 332.394 22.5355C333.078 22.526 333.744 22.796 334.129 23.3263C334.535 23.8469 334.669 24.5701 334.669 25.2547C334.66 25.949 334.535 26.6529 334.129 27.1832C333.744 27.7135 333.078 27.9835 332.394 27.9835ZM340.201 19.855C340.201 20.1828 339.94 20.4625 339.602 20.4625C339.265 20.4625 338.995 20.1828 338.995 19.855H338.243C338.243 20.5975 338.85 21.205 339.602 21.205C340.345 21.205 340.953 20.5975 340.953 19.855H340.201ZM341.27 21.7835L337.751 27.0096V21.7835H336.807V28.7259H337.645L341.145 23.4998V28.7259H342.1V21.7835H341.27ZM350.666 21.7835H345.053V22.7188H347.387V28.7259H348.322V22.7188H350.666V21.7835ZM354.405 28.8705C355.389 28.8705 356.295 28.5042 356.893 27.752C357.462 27.0386 357.665 26.1804 357.665 25.2547C357.654 24.358 357.471 23.4805 356.893 22.7574C356.305 22.0149 355.389 21.6485 354.405 21.6389C353.431 21.6389 352.506 22.0052 351.927 22.7574C351.368 23.4516 351.146 24.358 351.146 25.2547C351.146 26.1515 351.368 27.0481 351.927 27.752C352.496 28.5042 353.422 28.8705 354.405 28.8705ZM354.405 27.9835C353.731 27.9931 353.055 27.7135 352.669 27.1832C352.255 26.6529 352.129 25.949 352.129 25.2547C352.14 24.5701 352.255 23.8469 352.669 23.3263C353.055 22.796 353.731 22.526 354.405 22.5355C355.089 22.526 355.755 22.796 356.14 23.3263C356.546 23.8469 356.68 24.5701 356.68 25.2547C356.671 25.949 356.546 26.6529 356.14 27.1832C355.755 27.7135 355.089 27.9835 354.405 27.9835ZM364.034 23.9916C364.034 23.4709 363.832 22.9598 363.494 22.5741C363.254 22.2656 362.906 22.0341 362.53 21.9089C362.298 21.8221 362.058 21.7835 361.817 21.7835H358.818V28.7259H359.753V26.19H361.817C362.492 26.19 363.147 25.8718 363.543 25.3608C363.851 24.9847 364.044 24.4833 364.034 23.9916ZM362.791 24.8111C362.549 25.1197 362.154 25.303 361.807 25.303H359.753V22.6706H361.807C362.135 22.6706 362.492 22.8441 362.723 23.0852C362.945 23.3263 363.07 23.654 363.08 23.9916C363.089 24.2905 362.974 24.5797 362.791 24.8111ZM369.499 21.7835H365.082V28.7259H366.017V22.7188H369.499V21.7835ZM373.244 28.8705C374.228 28.8705 375.134 28.5042 375.732 27.752C376.3 27.0386 376.503 26.1804 376.503 25.2547C376.494 24.358 376.311 23.4805 375.732 22.7574C375.143 22.0149 374.228 21.6485 373.244 21.6389C372.27 21.6389 371.344 22.0052 370.766 22.7574C370.206 23.4516 369.985 24.358 369.985 25.2547C369.985 26.1515 370.206 27.0481 370.766 27.752C371.335 28.5042 372.26 28.8705 373.244 28.8705ZM373.244 27.9835C372.569 27.9931 371.894 27.7135 371.508 27.1832C371.094 26.6529 370.969 25.949 370.969 25.2547C370.978 24.5701 371.094 23.8469 371.508 23.3263C371.894 22.796 372.569 22.526 373.244 22.5355C373.929 22.526 374.594 22.796 374.98 23.3263C375.385 23.8469 375.52 24.5701 375.52 25.2547C375.509 25.949 375.385 26.6529 374.98 27.1832C374.594 27.7135 373.929 27.9835 373.244 27.9835ZM382.237 25.4861C382.092 25.2933 381.918 25.1197 381.715 24.9944C381.793 24.9173 381.86 24.8305 381.918 24.7436C382.178 24.4254 382.333 24.0205 382.304 23.6155C382.285 23.2106 382.149 22.8055 381.889 22.5066C381.649 22.1884 381.301 21.9667 380.935 21.8606C380.732 21.7932 380.414 21.7835 380.163 21.7835H377.657V28.7259H380.298C380.588 28.7259 380.877 28.7066 381.157 28.6295C381.552 28.5042 381.928 28.2728 382.208 27.9352C382.478 27.5881 382.623 27.1638 382.632 26.7203C382.641 26.2767 382.506 25.8429 382.237 25.4861ZM380.366 22.6609C380.646 22.6609 380.897 22.767 381.089 22.9791C381.243 23.1526 381.349 23.3745 381.349 23.6155C381.36 23.8373 381.282 24.0591 381.147 24.2423C380.964 24.493 380.617 24.6473 380.366 24.6473H378.601V22.6609H380.366ZM381.36 27.4917C381.06 27.8099 380.742 27.8388 380.289 27.8388H378.601V25.5247H380.53C380.838 25.5247 381.195 25.6693 381.417 25.9586C381.591 26.1707 381.687 26.4504 381.687 26.7203C381.677 27.0192 381.561 27.2892 381.36 27.4917ZM389.216 21.7835H384.829L384.279 26.3925C384.174 27.3085 383.951 27.8677 383.171 27.8871V28.7259C384.52 28.832 384.983 27.916 385.137 26.5757L385.6 22.6706H388.281V28.7259H389.216V21.7835ZM395.219 21.7835L391.7 27.0096V21.7835H390.755V28.7259H391.593L395.094 23.4998V28.7259H396.049V21.7835H395.219Z" fill="#646B7D"/>
<defs>
<clipPath id="clip0_5830:6970">
<rect width="35" height="35" fill="white"/>
</clipPath>
</defs>
</svg>
