<svg width="160" height="28" viewBox="0 0 160 28" fill="none" xmlns="http://www.w3.org/2000/svg">
<g clip-path="url(#clip0_5830:6202)">
<path d="M29.7397 8.09862L19.7175 -1.92407L19.7226 8.09774L29.7397 8.09862Z" fill="#1A80C0"/>
<path d="M29.7382 28.1456L19.7135 18.125L19.7175 28.1489L29.7382 28.1456Z" fill="#26C9F4"/>
<path d="M-0.333914 18.1261L9.68823 28.1488L9.69767 18.1224L-0.333914 18.1261Z" fill="#1A80C0"/>
<path d="M19.7128 18.1243L29.7385 28.1471L29.7399 18.1243L19.7128 18.1243Z" fill="#26C9F4"/>
<path d="M29.738 8.10121L19.7158 18.1239L29.7391 18.124L29.738 8.10121Z" fill="#00C0F2"/>
<path d="M19.7123 18.1251L9.68823 28.1497L19.7171 28.1442L19.7123 18.1251Z" fill="#00C0F2"/>
<path d="M19.7149 18.1257L29.74 8.1001L19.7164 8.1003L19.7149 18.1257Z" fill="#00ADE5"/>
<path d="M9.68893 28.1513L19.7158 18.1239L9.69057 18.1258L9.68893 28.1513Z" fill="#00ADE5"/>
<path d="M-0.350275 18.1071L9.67188 28.1298L9.67156 18.1056L-0.350275 18.1071Z" fill="#F22A2E"/>
<path d="M29.7223 8.08019L19.7002 -1.9425L19.6908 8.08395L29.7223 8.08019Z" fill="#F22A2E"/>
<path d="M-0.351247 -1.93956L9.6709 8.08313L9.66539 -1.94629L-0.351247 -1.93956Z" fill="#FF494B"/>
<path d="M-0.358818 18.1134L9.6709 8.08313L-0.350648 8.08264L-0.358818 18.1134Z" fill="#FF241E"/>
<path d="M9.67463 8.08849L19.6968 -1.9342L9.6679 -1.9287L9.67463 8.08849Z" fill="#FF3030"/>
<path d="M9.66528 8.07672L-0.351562 -1.94067L-0.351359 8.08345L9.66528 8.07672Z" fill="#FF494B"/>
<path d="M9.67474 8.08217L-0.35498 18.1124L9.6739 18.1069L9.67474 8.08217Z" fill="#F92A2D"/>
<path d="M19.693 -1.93578L9.6709 8.08691L19.6998 8.08141L19.693 -1.93578Z" fill="#F92A2D"/>
</g>
<path d="M51.19 8.84741V6.26205H40.4004V22.7351H51.19V20.1498H43.1968V15.7799H49.7917V13.1945H43.1968V8.84741H51.19ZM64.5293 10.3803H61.3134L58.517 14.224L55.6972 10.3803H52.4813L56.8857 16.489L52.388 22.7351H55.6039L58.517 18.7312L61.4299 22.7351H64.6458L60.1249 16.489L64.5293 10.3803ZM76.5038 12.0048C75.4319 10.7006 73.7773 10.0371 72.0528 10.0371C70.6546 10.0371 69.3496 10.5176 68.3476 11.3184V10.3803H65.854V28H68.6738V22.0488C69.6292 22.7351 70.8411 23.0783 72.146 23.0783C73.8239 23.0783 75.4552 22.3691 76.5038 21.1107C77.5525 19.8066 77.9487 18.2279 77.9487 16.5577C77.9487 14.8646 77.4826 13.2402 76.5038 12.0048ZM74.2667 19.4176C73.6841 20.2642 72.7053 20.6073 71.7266 20.6073C70.7246 20.6073 69.8623 20.2871 69.2564 19.6007C68.6273 18.8914 68.3476 17.7245 68.3476 16.5577C68.3476 15.3908 68.6273 14.2469 69.2564 13.4919C69.8157 12.8284 70.6779 12.5081 71.6334 12.5081C72.7286 12.5081 73.6375 12.8513 74.2201 13.6978C74.7328 14.4071 74.9658 15.4366 74.9658 16.5577C74.9658 17.6559 74.7794 18.7084 74.2667 19.4176ZM85.1883 23.0783C87.0525 23.0783 88.777 22.392 89.9422 21.0191C91.0141 19.7151 91.4569 18.2736 91.4569 16.5577C91.4569 14.9104 91.0375 13.3775 89.9422 12.0734C88.8003 10.7235 87.0293 10.0371 85.1883 10.0371C83.3473 10.0371 81.5529 10.7464 80.4343 12.0734C79.4089 13.286 78.9196 14.8417 78.9196 16.5577C78.9196 18.2279 79.3623 19.738 80.4343 21.0191C81.5762 22.3691 83.324 23.0783 85.1883 23.0783ZM87.7051 19.349C87.1458 20.104 86.1903 20.4929 85.1883 20.4929C84.1629 20.4929 83.2308 20.104 82.6715 19.349C82.0656 18.594 81.9024 17.5644 81.9024 16.5577C81.9024 15.5281 82.0656 14.4986 82.6715 13.7436C83.2308 12.9886 84.1629 12.6225 85.1883 12.6225C86.1903 12.6225 87.1458 12.9886 87.7051 13.7436C88.2877 14.4986 88.4974 15.5281 88.4974 16.5577C88.4974 17.5644 88.2877 18.594 87.7051 19.349ZM99.2733 10.06C98.4343 10.0829 97.5954 10.3117 96.873 10.7921C96.337 11.1353 95.9175 11.5929 95.6146 12.0963V10.3803H93.1211V22.7351H95.9409V16.329C95.9409 15.185 96.1506 14.224 96.873 13.4919C97.3391 13.0114 98.0614 12.6911 98.9936 12.6225C99.8326 12.5767 99.7709 12.6225 99.7709 12.6225V10.0791C99.7709 10.0791 99.7272 10.06 99.2733 10.06ZM109.969 12.531V10.3803H106.264V6.94843H103.467V10.3803H101.184V12.531H103.467V17.6788C103.467 18.9829 103.514 20.104 104.027 21.0649C104.516 21.9801 105.378 22.5292 106.52 22.8038C107.429 23.0326 108.99 22.9868 109.969 22.7351V20.3557C109.293 20.4472 108.524 20.47 107.895 20.4243C107.382 20.3786 106.846 20.0811 106.567 19.6236C106.287 19.166 106.264 18.4796 106.264 17.4958V12.531H109.969ZM112.246 19.9209V22.7351H115.113V19.9209H112.246ZM120.972 6.26205V20.1498H128.382V22.7351H118.175V6.26205H120.972ZM129.711 6.01038V8.54998H132.507V6.01038H129.711ZM129.711 10.3803V22.7351H132.507V10.3803H129.711ZM145.159 11.2955C143.994 10.1973 142.526 9.96849 141.105 10.06C139.963 10.1058 138.704 10.5176 137.889 11.4556C137.796 11.57 137.703 11.6844 137.609 11.776V10.3803H135.139V22.7351H137.958V17.3585V17.3356C137.958 16.4433 137.958 15.5053 138.099 14.9104C138.238 14.1783 138.588 13.5834 139.077 13.1945C139.543 12.8284 140.103 12.6454 140.732 12.6225C141.618 12.5996 142.34 12.8513 142.829 13.3317C143.645 14.0639 143.832 15.4366 143.832 16.8781V22.7351H146.675V16.7636C146.675 14.7731 146.628 12.5996 145.159 11.2955ZM151.682 17.5187H153.009L156.785 22.7351H160L155.433 16.4205L159.604 10.3803H156.459L152.986 15.368H151.682V6.26205H148.838L148.815 22.7351H151.682V17.5187Z" fill="#253858"/>
<defs>
<clipPath id="clip0_5830:6202">
<rect width="29" height="28" fill="white"/>
</clipPath>
</defs>
</svg>
